<svg xmlns="http://www.w3.org/2000/svg" width="32" height="32" viewBox="0 0 32 32" fill="none">
<path d="M8 8C6.93913 8 5.92172 8.42143 5.17157 9.17157C4.42143 9.92172 4 10.9391 4 12V20C4 21.0609 4.42143 22.0783 5.17157 22.8284C5.92172 23.5786 6.93913 24 8 24H17C18.0609 24 19.0783 23.5786 19.8284 22.8284C20.5786 22.0783 21 21.0609 21 20V19.724L26.504 22.868C26.6561 22.9549 26.8283 23.0003 27.0034 22.9997C27.1785 22.9991 27.3504 22.9525 27.5019 22.8646C27.6533 22.7767 27.7791 22.6506 27.8665 22.4989C27.9539 22.3472 27.9999 22.1751 28 22V10C27.9999 9.82488 27.9539 9.65285 27.8665 9.50111C27.7791 9.34938 27.6533 9.22326 27.5019 9.13537C27.3504 9.04749 27.1785 9.00092 27.0034 9.00033C26.8283 8.99974 26.6561 9.04514 26.504 9.132L21 12.276V12C21 10.9391 20.5786 9.92172 19.8284 9.17157C19.0783 8.42143 18.0609 8 17 8H8ZM21 14.58L26 11.724V20.276L21 17.42V14.58ZM6 12C6 11.4696 6.21071 10.9609 6.58579 10.5858C6.96086 10.2107 7.46957 10 8 10H17C17.5304 10 18.0391 10.2107 18.4142 10.5858C18.7893 10.9609 19 11.4696 19 12V20C19 20.5304 18.7893 21.0391 18.4142 21.4142C18.0391 21.7893 17.5304 22 17 22H8C7.46957 22 6.96086 21.7893 6.58579 21.4142C6.21071 21.0391 6 20.5304 6 20V12Z" fill="black"/>
</svg>