<svg xmlns="http://www.w3.org/2000/svg" width="24" height="24" viewBox="0 0 24 24" fill="none">
<path d="M19.1 10.66C20.211 11.974 19.98 13.581 19.98 15C19.98 18.906 14.713 20 12 20C9.28699 20 4.01999 18.906 4.01999 15C4.01999 13.582 3.78899 11.974 4.89999 10.66M19.1 10.66C18.905 10.43 18.67 10.21 18.384 10M19.1 10.66C19.8 11.063 19.979 9.555 19.98 9.062V7.188C19.98 5.563 18.863 5 17.905 5C16.948 5 15.032 6.563 14.394 6.563C13.628 6.563 13.48 6.406 12 6.406C10.52 6.406 10.372 6.563 9.60599 6.563C8.96799 6.563 7.05199 5 6.09499 5C5.13699 5 4.01999 5.563 4.01999 7.188V9.063C4.02199 9.555 4.19999 11.063 4.89999 10.66M4.89999 10.66C5.09499 10.43 5.32999 10.21 5.61599 10" stroke="black" stroke-width="1.5" stroke-linecap="round"/>
<path d="M12.826 16C12.826 16.173 12.465 16.313 12.019 16.313C11.574 16.313 11.213 16.173 11.213 16C11.213 15.827 11.574 15.687 12.019 15.687C12.465 15.687 12.826 15.827 12.826 16ZM15.5 13.594C15.5 14.025 15.283 14.375 15.016 14.375C14.749 14.375 14.532 14.025 14.532 13.594C14.532 13.162 14.749 12.813 15.016 12.813C15.283 12.813 15.5 13.164 15.5 13.594ZM9.49998 13.594C9.49998 14.025 9.28298 14.375 9.01598 14.375C8.74898 14.375 8.53198 14.025 8.53198 13.594C8.53198 13.162 8.74898 12.813 9.01598 12.813C9.28298 12.813 9.49998 13.164 9.49998 13.594Z" stroke="black" stroke-width="1.5"/>
<path d="M22 15.469C21.517 15.156 19.42 14.375 18.613 14.375M20.387 17.969C19.903 17.656 18.774 16.875 17.967 16.875M2 15.469C2.484 15.156 4.58 14.375 5.387 14.375M3.613 17.969C4.097 17.656 5.226 16.875 6.033 16.875" stroke="black" stroke-width="1.5" stroke-linecap="round"/>
</svg>