<svg width="24" height="24" viewBox="0 0 24 24" fill="none" xmlns="http://www.w3.org/2000/svg">
<path d="M2.29201 8.85958C2.73505 7.49057 3.46302 6.23093 4.42801 5.16358C4.5078 5.07539 4.61201 5.01291 4.72738 4.98407C4.84276 4.95522 4.9641 4.96132 5.07601 5.00158L7.37761 5.82478C7.54146 5.88328 7.71607 5.90546 7.88935 5.88978C8.06262 5.87409 8.23042 5.82091 8.3811 5.73393C8.53177 5.64695 8.66174 5.52824 8.76198 5.38603C8.86222 5.24383 8.93033 5.08153 8.96161 4.91038L9.40081 2.50318C9.42202 2.38599 9.47762 2.27778 9.56054 2.1923C9.64345 2.10682 9.74993 2.04795 9.86641 2.02318C11.2726 1.72364 12.7262 1.72364 14.1324 2.02318C14.2487 2.04816 14.3549 2.10712 14.4376 2.19259C14.5203 2.27805 14.5757 2.38615 14.5968 2.50318L15.0372 4.91038C15.0685 5.08153 15.1366 5.24383 15.2368 5.38603C15.3371 5.52824 15.467 5.64695 15.6177 5.73393C15.7684 5.82091 15.9362 5.87409 16.1095 5.88978C16.2827 5.90546 16.4574 5.88328 16.6212 5.82478L18.9228 5.00158C19.0348 4.96146 19.1562 4.95556 19.2716 4.98462C19.387 5.01368 19.4912 5.07639 19.5708 5.16478C20.5356 6.23178 21.2636 7.491 21.7068 8.85958C21.7434 8.97262 21.7456 9.09398 21.7131 9.20828C21.6806 9.32257 21.615 9.42465 21.5244 9.50158L19.6584 11.0856C19.5259 11.1982 19.4194 11.3384 19.3463 11.4962C19.2733 11.6541 19.2355 11.826 19.2355 12C19.2355 12.1739 19.2733 12.3458 19.3463 12.5037C19.4194 12.6616 19.5259 12.8017 19.6584 12.9144L21.5244 14.4984C21.615 14.5753 21.6806 14.6774 21.7131 14.7917C21.7456 14.906 21.7434 15.0273 21.7068 15.1404C21.2638 16.5094 20.5358 17.769 19.5708 18.8364C19.491 18.9246 19.3868 18.987 19.2714 19.0159C19.1561 19.0447 19.0347 19.0386 18.9228 18.9984L16.6212 18.1752C16.4574 18.1167 16.2827 18.0945 16.1095 18.1102C15.9362 18.1259 15.7684 18.179 15.6177 18.266C15.467 18.353 15.3371 18.4717 15.2368 18.6139C15.1366 18.7561 15.0685 18.9184 15.0372 19.0896L14.5968 21.498C14.5755 21.6148 14.5199 21.7226 14.4373 21.8079C14.3546 21.8931 14.2485 21.9519 14.1324 21.9768C12.7262 22.2764 11.2726 22.2764 9.86641 21.9768C9.74993 21.952 9.64345 21.8931 9.56054 21.8077C9.47762 21.7222 9.42202 21.614 9.40081 21.4968L8.96281 19.0896C8.93153 18.9184 8.86342 18.7561 8.76318 18.6139C8.66294 18.4717 8.53297 18.353 8.3823 18.266C8.23162 18.179 8.06382 18.1259 7.89055 18.1102C7.71727 18.0945 7.54266 18.1167 7.37881 18.1752L5.07601 18.9984C4.96399 19.0385 4.84257 19.0444 4.72719 19.0153C4.6118 18.9863 4.50766 18.9236 4.42801 18.8352C3.46314 17.7682 2.73517 16.509 2.29201 15.1404C2.25557 15.0272 2.25356 14.9058 2.28625 14.7915C2.31894 14.6772 2.38484 14.5752 2.47561 14.4984L4.34041 12.9144C4.47297 12.8017 4.57945 12.6616 4.65247 12.5037C4.72549 12.3458 4.76332 12.1739 4.76332 12C4.76332 11.826 4.72549 11.6541 4.65247 11.4962C4.57945 11.3384 4.47297 11.1982 4.34041 11.0856L2.47561 9.50158C2.38484 9.42479 2.31894 9.32278 2.28625 9.20848C2.25356 9.09417 2.25557 8.97274 2.29201 8.85958ZM3.56521 8.85238L5.11801 10.17C5.38354 10.3953 5.59685 10.6757 5.74315 10.9917C5.88946 11.3077 5.96524 11.6517 5.96524 12C5.96524 12.3482 5.88946 12.6923 5.74315 13.0083C5.59685 13.3243 5.38354 13.6047 5.11801 13.83L3.56401 15.1476C3.91467 16.0856 4.41962 16.9584 5.05801 17.73L6.97321 17.046C7.30099 16.929 7.65031 16.8846 7.99693 16.9161C8.34355 16.9475 8.67919 17.054 8.98057 17.2281C9.28194 17.4022 9.54185 17.6397 9.74227 17.9243C9.94268 18.2088 10.0788 18.5336 10.1412 18.876L10.5072 20.8776C11.4944 21.0421 12.502 21.0421 13.4892 20.8776L13.8552 18.8736C13.9174 18.5311 14.0534 18.2062 14.2538 17.9216C14.4542 17.637 14.7141 17.3994 15.0156 17.2253C15.3171 17.0513 15.6528 16.945 15.9995 16.9138C16.3462 16.8826 16.6955 16.9273 17.0232 17.0448L18.9396 17.73C19.578 16.9584 20.0829 16.0856 20.4336 15.1476L18.8808 13.83C18.6149 13.6049 18.4013 13.3246 18.2547 13.0086C18.1082 12.6925 18.0323 12.3483 18.0323 12C18.0323 11.6516 18.1082 11.3074 18.2547 10.9914C18.4013 10.6754 18.6149 10.395 18.8808 10.17L20.4336 8.85238C20.0829 7.91437 19.578 7.04155 18.9396 6.26998L17.0244 6.95398C16.6967 7.07099 16.3475 7.11535 16.0009 7.08398C15.6544 7.05261 15.3188 6.94625 15.0174 6.77228C14.7161 6.59832 14.4562 6.3609 14.2557 6.07649C14.0552 5.79208 13.919 5.46747 13.8564 5.12518L13.4892 3.12238C12.502 2.95778 11.4944 2.95778 10.5072 3.12238L10.1424 5.12518C10.08 5.46773 9.94389 5.7926 9.7434 6.07727C9.5429 6.36193 9.28288 6.59956 8.98135 6.77367C8.67983 6.94778 8.34403 7.0542 7.99727 7.08554C7.6505 7.11688 7.30106 7.0724 6.97321 6.95518L5.05801 6.26998C4.41964 7.04155 3.91469 7.91437 3.56401 8.85238H3.56521ZM9.00001 12C9.00001 11.2043 9.31608 10.4413 9.87869 9.87866C10.4413 9.31605 11.2044 8.99998 12 8.99998C12.7957 8.99998 13.5587 9.31605 14.1213 9.87866C14.6839 10.4413 15 11.2043 15 12C15 12.7956 14.6839 13.5587 14.1213 14.1213C13.5587 14.6839 12.7957 15 12 15C11.2044 15 10.4413 14.6839 9.87869 14.1213C9.31608 13.5587 9.00001 12.7956 9.00001 12ZM10.2 12C10.2 12.4774 10.3897 12.9352 10.7272 13.2728C11.0648 13.6103 11.5226 13.8 12 13.8C12.4774 13.8 12.9352 13.6103 13.2728 13.2728C13.6104 12.9352 13.8 12.4774 13.8 12C13.8 11.5226 13.6104 11.0647 13.2728 10.7272C12.9352 10.3896 12.4774 10.2 12 10.2C11.5226 10.2 11.0648 10.3896 10.7272 10.7272C10.3897 11.0647 10.2 11.5226 10.2 12Z" fill="black"/>
</svg>
