<svg xmlns="http://www.w3.org/2000/svg" width="24" height="24" viewBox="0 0 24 24" fill="none">
<path d="M8.68701 4L11.294 1.393C11.4815 1.20553 11.7358 1.10021 12.001 1.10021C12.2662 1.10021 12.5205 1.20553 12.708 1.393L15.315 4H19C19.2652 4 19.5196 4.10536 19.7071 4.29289C19.8947 4.48043 20 4.73478 20 5V8.686L22.607 11.293C22.7945 11.4805 22.8998 11.7348 22.8998 12C22.8998 12.2652 22.7945 12.5195 22.607 12.707L20 15.314V19C20 19.2652 19.8947 19.5196 19.7071 19.7071C19.5196 19.8946 19.2652 20 19 20H15.314L12.707 22.607C12.5195 22.7945 12.2652 22.8998 12 22.8998C11.7348 22.8998 11.4805 22.7945 11.293 22.607L8.68701 20H5.00101C4.7358 20 4.48144 19.8946 4.29391 19.7071C4.10637 19.5196 4.00101 19.2652 4.00101 19V15.314L1.39401 12.707C1.20654 12.5195 1.10123 12.2652 1.10123 12C1.10123 11.7348 1.20654 11.4805 1.39401 11.293L4.00101 8.686V5C4.00101 4.73478 4.10637 4.48043 4.29391 4.29289C4.48144 4.10536 4.7358 4 5.00101 4H8.68701ZM6.00101 6V9.515L3.51601 12L6.00001 14.485V18H9.51501L12 20.485L14.486 18H18.001V14.485L20.486 12L18.001 9.515V6H14.486L12.001 3.515L9.51601 6H6.00101ZM12.001 16C10.9401 16 9.92273 15.5786 9.17259 14.8284C8.42244 14.0783 8.00101 13.0609 8.00101 12C8.00101 10.9391 8.42244 9.92172 9.17259 9.17157C9.92273 8.42143 10.9401 8 12.001 8C13.0619 8 14.0793 8.42143 14.8294 9.17157C15.5796 9.92172 16.001 10.9391 16.001 12C16.001 13.0609 15.5796 14.0783 14.8294 14.8284C14.0793 15.5786 13.0619 16 12.001 16ZM12.001 14C12.5314 14 13.0402 13.7893 13.4152 13.4142C13.7903 13.0391 14.001 12.5304 14.001 12C14.001 11.4696 13.7903 10.9609 13.4152 10.5858C13.0402 10.2107 12.5314 10 12.001 10C11.4706 10 10.9619 10.2107 10.5868 10.5858C10.2117 10.9609 10.001 11.4696 10.001 12C10.001 12.5304 10.2117 13.0391 10.5868 13.4142C10.9619 13.7893 11.4706 14 12.001 14Z" fill="black"/>
</svg>