<svg width="24" height="24" viewBox="0 0 24 24" fill="none" xmlns="http://www.w3.org/2000/svg">
<path d="M18.364 19.364C19.6227 18.1053 20.4798 16.5017 20.8271 14.7558C21.1743 13.01 20.9961 11.2004 20.3149 9.55588C19.6337 7.91136 18.4802 6.50575 17.0001 5.51683C15.5201 4.5279 13.78 4.00006 12 4.00006C10.22 4.00006 8.47992 4.5279 6.99988 5.51683C5.51984 6.50575 4.36629 7.91136 3.6851 9.55588C3.00391 11.2004 2.82567 13.01 3.17293 14.7558C3.52019 16.5017 4.37734 18.1053 5.636 19.364" stroke="black" stroke-width="2" stroke-linecap="round" stroke-linejoin="round"/>
<path d="M15.536 16.536C16.2351 15.8367 16.7112 14.9458 16.904 13.9759C17.0968 13.006 16.9978 12.0007 16.6193 11.0872C16.2408 10.1736 15.5999 9.39282 14.7777 8.84348C13.9555 8.29413 12.9889 8.00092 12 8.00092C11.0112 8.00092 10.0445 8.29413 9.22229 8.84348C8.40007 9.39282 7.75921 10.1736 7.38073 11.0872C7.00225 12.0007 6.90316 13.006 7.09598 13.9759C7.2888 14.9458 7.76487 15.8367 8.464 16.536" stroke="black" stroke-width="2" stroke-linecap="round" stroke-linejoin="round"/>
<path d="M12 14C12.5523 14 13 13.5523 13 13C13 12.4477 12.5523 12 12 12C11.4477 12 11 12.4477 11 13C11 13.5523 11.4477 14 12 14Z" stroke="black" stroke-width="2" stroke-linecap="round" stroke-linejoin="round"/>
</svg>
